{
    "asset" : {
        "generator" : "Khronos glTF Blender I/O v1.5.17",
        "version" : "2.0"
    },
    "scene" : 0,
    "scenes" : [
        {
            "name" : "Scene",
            "nodes" : [
                0,
                1,
                2
            ]
        }
    ],
    "nodes" : [
        {
            "name" : "Light",
            "rotation" : [
                0.16907575726509094,
                0.7558803558349609,
                -0.27217137813568115,
                0.570947527885437
            ],
            "translation" : [
                4.076245307922363,
                5.903861999511719,
                -1.0054539442062378
            ]
        },
        {
            "name" : "Camera",
            "rotation" : [
                0.483536034822464,
                0.33687159419059753,
                -0.20870360732078552,
                0.7804827094078064
            ],
            "translation" : [
                7.358891487121582,
                4.958309173583984,
                6.925790786743164
            ]
        },
        {
            "mesh" : 0,
            "name" : "Home",
            "rotation" : [
                0.7092404961585999,
                -0.0008967811590991914,
                0.0009022193844430149,
                0.7049654722213745
            ],
            "scale" : [
                2.6118292808532715,
                2.6118292808532715,
                2.6118292808532715
            ]
        }
    ],
    "meshes" : [
        {
            "name" : "Text",
            "primitives" : [
                {
                    "attributes" : {
                        "POSITION" : 0,
                        "NORMAL" : 1,
                        "TEXCOORD_0" : 2
                    },
                    "indices" : 3
                }
            ]
        }
    ],
    "accessors" : [
        {
            "bufferView" : 0,
            "componentType" : 5126,
            "count" : 847,
            "max" : [
                2.80400013923645,
                0.13999998569488525,
                0.009000000543892384
            ],
            "min" : [
                0.07500000298023224,
                -0.13999998569488525,
                -0.6910000443458557
            ],
            "type" : "VEC3"
        },
        {
            "bufferView" : 1,
            "componentType" : 5126,
            "count" : 847,
            "type" : "VEC3"
        },
        {
            "bufferView" : 2,
            "componentType" : 5126,
            "count" : 847,
            "type" : "VEC2"
        },
        {
            "bufferView" : 3,
            "componentType" : 5123,
            "count" : 1584,
            "type" : "SCALAR"
        }
    ],
    "bufferViews" : [
        {
            "buffer" : 0,
            "byteLength" : 10164,
            "byteOffset" : 0
        },
        {
            "buffer" : 0,
            "byteLength" : 10164,
            "byteOffset" : 10164
        },
        {
            "buffer" : 0,
            "byteLength" : 6776,
            "byteOffset" : 20328
        },
        {
            "buffer" : 0,
            "byteLength" : 3168,
            "byteOffset" : 27104
        }
    ],
    "buffers" : [
        {
            "byteLength" : 30272,
            "uri" : "data:application/octet-stream;base64,"
        }
    ]
}
